<?xml version="1.0" encoding="UTF-8"?>
<svg version="1.1" xmlns="http://www.w3.org/2000/svg" width="1024" height="1024">
<path d="M0 0 C337.92 0 675.84 0 1024 0 C1024 337.92 1024 675.84 1024 1024 C686.08 1024 348.16 1024 0 1024 C0 686.08 0 348.16 0 0 Z " fill="#FEFEFE" transform="translate(0,0)"/>
<path d="M0 0 C0 4.12744343 -1.61750496 5.04694583 -4.4375 8 C-5.36681121 8.99010111 -6.29384609 9.98234306 -7.21875 10.9765625 C-7.68796875 11.4809082 -8.1571875 11.98525391 -8.640625 12.50488281 C-11.44915505 15.59386234 -14.03014957 18.87066137 -16.65234375 22.1171875 C-19.22815134 25.28015922 -21.85701325 28.39321111 -24.5 31.5 C-27.85465374 35.44634525 -31.17222304 39.41642657 -34.4375 43.4375 C-40.90692763 51.3777744 -47.6156337 59.11511189 -54.33984375 66.83984375 C-55.45584092 68.12229859 -56.57172685 69.40485025 -57.6875 70.6875 C-58.23470703 71.31648193 -58.78191406 71.94546387 -59.34570312 72.59350586 C-63.28825565 77.14063859 -67.10404431 81.77908394 -70.890625 86.45703125 C-73.02986806 89.0360076 -75.24424937 91.52256353 -77.5 94 C-81.34436481 98.2228256 -84.96525534 102.58644573 -88.55859375 107.0234375 C-91.78492393 110.95697925 -95.09881129 114.81116825 -98.41723633 118.66699219 C-101.79752132 122.59524367 -105.15787885 126.53923604 -108.5 130.5 C-112.35040111 135.06312901 -116.23033234 139.59961443 -120.125 144.125 C-123.70626602 148.2868418 -127.2315813 152.48269169 -130.6875 156.75 C-133.53458501 160.2588399 -136.45812552 163.65866637 -139.5 167 C-143.36581646 171.2470475 -147.01369253 175.63268905 -150.62890625 180.09375 C-158.40175228 189.62092866 -166.4742012 198.90598873 -174.48388672 208.23388672 C-177.48935434 211.73494192 -180.49145815 215.23888345 -183.49316406 218.74316406 C-186.02685208 221.70051252 -188.5634265 224.65529679 -191.10546875 227.60546875 C-195.69606553 232.93835322 -200.25761398 238.28185945 -204.6875 243.75 C-208.23862066 248.12651627 -211.95797398 252.3083146 -215.75390625 256.47265625 C-218.06187598 259.06962393 -220.25555863 261.73404013 -222.4375 264.4375 C-225.51336588 268.24087503 -228.68753166 271.90082652 -232 275.5 C-236.04002083 279.89429958 -239.84632449 284.42113347 -243.59765625 289.0625 C-246.28948539 292.35397238 -249.04073079 295.58835167 -251.8125 298.8125 C-252.31676514 299.39918457 -252.82103027 299.98586914 -253.34057617 300.59033203 C-255.41271556 302.99869793 -257.48716935 305.40506514 -259.56152344 307.81152344 C-262.57983587 311.31488796 -265.58796756 314.82652451 -268.58496094 318.34814453 C-269.97469897 319.97046467 -271.38065078 321.57748387 -272.7890625 323.18359375 C-273.62179687 324.15425781 -274.45453125 325.12492187 -275.3125 326.125 C-276.05113281 326.97320312 -276.78976562 327.82140625 -277.55078125 328.6953125 C-279.23582509 330.82688888 -279.23582509 330.82688888 -278.73217773 332.94042969 C-277.48287708 336.45463452 -275.01873754 339.21013454 -272.75 342.125 C-271.64431255 343.57045254 -270.54019983 345.01711074 -269.4375 346.46484375 C-268.86644531 347.21362793 -268.29539062 347.96241211 -267.70703125 348.73388672 C-264.99094375 352.33953948 -262.37370731 356.01439134 -259.75 359.6875 C-254.22847723 367.39191128 -248.50744844 374.93106983 -242.74023438 382.45263672 C-238.57979482 387.8908105 -234.52199417 393.3814236 -230.57641602 398.97680664 C-227.06188683 403.95052904 -223.41397191 408.81732695 -219.74780273 413.67993164 C-215.73260759 419.00986499 -211.76503657 424.37346592 -207.8125 429.75 C-204.06277401 434.84952628 -200.30693554 439.94292051 -196.5 445 C-188.6202212 455.47718737 -180.83692133 466.02837477 -173.19750977 476.68212891 C-167.19401513 485.05402595 -161.01370765 493.27236311 -154.74414062 501.44677734 C-150.53285201 506.94984096 -146.4332652 512.51092753 -142.44458008 518.17675781 C-139.72305956 522.02932224 -136.89600113 525.77872807 -134 529.5 C-130.16514688 534.42850195 -126.50005164 539.45357922 -122.89501953 544.55200195 C-119.62994204 549.15475717 -116.27106346 553.68069398 -112.875 558.1875 C-108.94690648 563.40034592 -105.06042527 568.6372944 -101.234375 573.92578125 C-98.29939301 577.96394704 -95.33766701 581.98211994 -92.375 586 C-91.77445801 586.8144458 -91.17391602 587.6288916 -90.55517578 588.46801758 C-89.31909553 590.14410574 -88.08292926 591.82013047 -86.84667969 593.49609375 C-84.47555613 596.71109153 -82.10583628 599.92712208 -79.73632812 603.14331055 C-78.57630529 604.71779036 -77.41614846 606.29217146 -76.25585938 607.86645508 C-73.31168451 611.86123983 -70.36916858 615.85722864 -67.4296875 619.85546875 C-61.98362535 627.26020237 -56.5248521 634.6538086 -51 642 C-46.48580075 648.01028152 -41.98087516 654.02732127 -37.5 660.0625 C-36.9121875 660.84818359 -36.324375 661.63386719 -35.71875 662.44335938 C-35.161875 663.19552734 -34.605 663.94769531 -34.03125 664.72265625 C-33.54205078 665.38015869 -33.05285156 666.03766113 -32.54882812 666.71508789 C-30.51535276 669.71497691 -28.78746197 672.84696284 -27 676 C-40.44715891 676.44174349 -53.89257287 676.77855799 -67.34552956 676.98443127 C-73.59397577 677.08328828 -79.83743357 677.21713655 -86.08300781 677.43334961 C-92.12003173 677.64101608 -98.15228643 677.75362932 -104.19260788 677.80266762 C-106.48723851 677.83756915 -108.78162969 677.90574152 -111.07420731 678.00887108 C-128.52452198 678.76206995 -128.52452198 678.76206995 -134.31746674 674.15823746 C-138.52148481 669.67346082 -141.68543662 664.67176274 -144.67123032 659.32099342 C-146.57087479 656.0028395 -148.78623686 653.00787427 -151.0625 649.9375 C-151.86315259 648.81686871 -152.6616136 647.69466557 -153.45703125 646.5703125 C-162.62436675 633.68158338 -171.97573359 620.92865004 -181.37158203 608.20605469 C-187.77761092 599.52766233 -194.13686656 590.81772034 -200.4375 582.0625 C-205.11358214 575.56594256 -209.87429762 569.14078431 -214.69555664 562.75146484 C-218.23413605 558.05086802 -221.6761971 553.29064205 -225.07763672 548.49023438 C-229.18290341 542.71017422 -233.39870051 537.01342028 -237.61450195 531.3137207 C-241.64021191 525.864357 -245.61350091 520.38011917 -249.5625 514.875 C-253.85463862 508.89580065 -258.25249878 503.01365935 -262.75 497.1875 C-267.20957513 491.40856278 -271.44585622 485.54999713 -275.5546875 479.515625 C-280.32927546 472.57595915 -285.43642369 465.86528997 -290.44921875 459.09716797 C-294.63801424 453.43253426 -298.76143303 447.72047569 -302.87890625 442.00390625 C-309.18435447 433.25342911 -315.5371798 424.54134417 -321.94824219 415.86791992 C-327.04235299 408.9661053 -332.0433419 402.00099405 -337 395 C-345.79119753 403.69351756 -354.14771546 412.76253522 -361.8828125 422.41015625 C-364.7706349 425.94267701 -367.82570796 429.30841632 -370.89453125 432.68359375 C-374.94159895 437.13611907 -378.87763771 441.68271055 -382.78515625 446.2578125 C-383.81507479 447.46356676 -384.84502353 448.66929523 -385.875 449.875 C-386.65447998 450.7877771 -386.65447998 450.7877771 -387.44970703 451.71899414 C-390.47892533 455.25623858 -393.55148583 458.74392577 -396.6875 462.1875 C-399.69814479 465.5008308 -402.56565178 468.88941929 -405.375 472.375 C-408.61950975 476.38824377 -411.98728819 480.22433696 -415.5 484 C-419.74478533 488.56297851 -423.75371313 493.25767161 -427.63671875 498.13671875 C-430 501 -430 501 -431.94563293 502.67672634 C-436.84556181 507.22490276 -438.5627822 510.68318119 -439 517.3842926 C-439.06942113 520.34505734 -439.03920396 523.2989836 -439 526.26000977 C-439.0076159 527.89680393 -439.01874299 529.53358492 -439.03309631 531.17033386 C-439.06200123 535.59164294 -439.04206795 540.0115172 -439.0130806 544.43277478 C-438.99113354 549.06129833 -439.01449312 553.68959303 -439.03295898 558.31809998 C-439.06104782 567.0728156 -439.04864272 575.82698238 -439.02153492 584.58168215 C-438.98723688 596.41886318 -439.01580323 608.25588386 -439.04076958 620.09306049 C-439.07842484 638.72899158 -439.0323581 657.3637544 -439 676 C-467.38 676 -495.76 676 -525 676 C-525 482.95 -525 289.9 -525 91 C-496.62 91 -468.24 91 -439 91 C-438.67 205.18 -438.34 319.36 -438 437 C-404.34 403.34 -370.68 369.68 -336 335 C-334.35 333.35 -332.7 331.7 -331 330 C-330.278125 329.071875 -329.55625 328.14375 -328.8125 327.1875 C-328.214375 326.465625 -327.61625 325.74375 -327 325 C-326.34 325 -325.68 325 -325 325 C-324.67 324.01 -324.34 323.02 -324 322 C-322.37637856 320.2913722 -320.70239394 318.63015657 -319 317 C-318.14019531 316.11699219 -317.28039062 315.23398437 -316.39453125 314.32421875 C-315.54246094 313.45410156 -314.69039062 312.58398438 -313.8125 311.6875 C-312.95269531 310.80449219 -312.09289062 309.92148437 -311.20703125 309.01171875 C-309 307 -309 307 -307 307 C-306.67 306.01 -306.34 305.02 -306 304 C-304.90854754 302.84192484 -303.80533173 301.69349171 -302.65731812 300.59146118 C-300.63653503 298.65097806 -298.67029237 296.66087252 -296.70043945 294.66870117 C-292.68947404 290.62592771 -288.67425506 286.58742272 -284.65575886 282.55213451 C-282.23229826 280.11817538 -279.81077222 277.68235028 -277.39331055 275.24243164 C-274.59712942 272.42045706 -271.79295345 269.60650556 -268.98828125 266.79296875 C-268.11746414 265.91182907 -267.24664703 265.03068939 -266.34944153 264.12284851 C-265.54488022 263.31813614 -264.74031891 262.51342377 -263.91137695 261.68432617 C-263.2025386 260.9710466 -262.49370026 260.25776703 -261.76338196 259.52287292 C-260 258 -260 258 -258 258 C-257.73703125 257.41089844 -257.4740625 256.82179688 -257.203125 256.21484375 C-254.60038533 251.42343663 -250.05084968 247.80438951 -245.875 244.375 C-243.05971037 242.04932596 -240.56672982 239.59623172 -238 237 C-237.00375938 236.00242088 -236.00681341 235.00554581 -235.00926971 234.00926971 C-234.46943844 233.46943844 -233.92960717 232.92960717 -233.37341738 232.37341738 C-87.99073029 86.99073029 -87.99073029 86.99073029 -86.4549787 85.45581979 C-85.05494365 84.05497541 -83.65781857 82.65122459 -82.26081467 81.24735737 C-79.80686908 78.80801867 -77.26340293 76.4976383 -74.69042969 74.18432617 C-66.85744388 67.06391244 -59.4227227 59.54798254 -51.953125 52.05078125 C-50.44591949 50.54170588 -48.93848949 49.03285467 -47.43084717 47.5242157 C-43.50293615 43.59252417 -39.57803994 39.65783692 -35.65380859 35.72247314 C-31.63303576 31.69138907 -27.60935723 27.66320753 -23.5859375 23.63476562 C-15.72114534 15.75931512 -7.8595417 7.88069013 0 0 Z " fill="#010101" transform="translate(792,176)"/>
<path d="M0 0 C0 4.12744343 -1.61750496 5.04694583 -4.4375 8 C-5.36681121 8.99010111 -6.29384609 9.98234306 -7.21875 10.9765625 C-7.68796875 11.4809082 -8.1571875 11.98525391 -8.640625 12.50488281 C-11.44915505 15.59386234 -14.03014957 18.87066137 -16.65234375 22.1171875 C-19.22814891 25.28015623 -21.85691945 28.39329337 -24.5 31.5 C-28.77895246 36.53089287 -32.97672849 41.61822611 -37.125 46.7578125 C-38.67687856 48.61360061 -40.25352597 50.32993421 -42 52 C-42.99 51.01 -43.98 50.02 -45 49 C-43.35409438 45.10967762 -40.7352074 42.15664697 -38 39 C-37.34939102 38.22166054 -37.34939102 38.22166054 -36.68563843 37.42759705 C-32.81623714 32.82201849 -28.6822438 28.55165852 -24.4140625 24.31640625 C-23.71227875 23.61603745 -23.010495 22.91566864 -22.28744507 22.19407654 C-20.06898864 19.98116973 -17.84706185 17.77178584 -15.625 15.5625 C-14.11044534 14.05296686 -12.59612015 12.54320343 -11.08203125 11.03320312 C-7.39066901 7.35280298 -3.69645931 3.67528043 0 0 Z " fill="#0B0B0B" transform="translate(792,176)"/>
<path d="M0 0 C0 4.12744343 -1.61750496 5.04694583 -4.4375 8 C-8.85244883 12.69276292 -12.97039585 17.55147376 -16.9921875 22.58984375 C-18.88718853 24.86458234 -20.87226334 26.94382399 -23 29 C-23 28.34 -23 27.68 -23 27 C-24.98 28.65 -26.96 30.3 -29 32 C-29.66 31.67 -30.32 31.34 -31 31 C-20.77 20.77 -10.54 10.54 0 0 Z " fill="#262625" transform="translate(792,176)"/>
<path d="M0 0 C2 1 2 1 2 1 Z M-1 1 C-0.67 1.66 -0.34 2.32 0 3 C-0.66 2.67 -1.32 2.34 -2 2 C-1.67 1.67 -1.34 1.34 -1 1 Z M-3 3 C-2.34 3.66 -1.68 4.32 -1 5 C-2.32 5.99 -3.64 6.98 -5 8 C-5 5 -5 5 -3 3 Z M-7 7 C-6.67 7.66 -6.34 8.32 -6 9 C-6.66 8.67 -7.32 8.34 -8 8 C-7.67 7.67 -7.34 7.34 -7 7 Z M-13 13 C-12.34 13.66 -11.68 14.32 -11 15 C-11.99 15 -12.98 15 -14 15 C-13.67 14.34 -13.34 13.68 -13 13 Z M-15 15 C-14.67 15.66 -14.34 16.32 -14 17 C-14.66 16.67 -15.32 16.34 -16 16 C-15.67 15.67 -15.34 15.34 -15 15 Z M-20 20 C-19.34 20.66 -18.68 21.32 -18 22 C-18.99 22.66 -19.98 23.32 -21 24 C-21 21 -21 21 -20 20 Z M-26 25 C-25.01 25.495 -25.01 25.495 -24 26 C-24.99 26.495 -24.99 26.495 -26 27 C-26 26.34 -26 25.68 -26 25 Z M-30 29 C-29.01 29.495 -29.01 29.495 -28 30 C-28.99 30.495 -28.99 30.495 -30 31 C-30 30.34 -30 29.68 -30 29 Z M-33 32 C-32.34 32.33 -31.68 32.66 -31 33 C-32.98 33.99 -32.98 33.99 -35 35 C-34.34 34.01 -33.68 33.02 -33 32 Z " fill="#040404" transform="translate(576,391)"/>
<path d="M0 0 C0 4.23197879 -1.89139138 5.3929992 -4.75 8.4375 C-5.63171875 9.38496094 -6.5134375 10.33242187 -7.421875 11.30859375 C-9.58722087 13.56908361 -11.7737237 15.7997316 -14 18 C-14.99 17.67 -15.98 17.34 -17 17 C-11.39 11.39 -5.78 5.78 0 0 Z " fill="#323232" transform="translate(792,176)"/>
<path d="M0 0 C0 3 0 3 -1 6 C-1.061875 6.680625 -1.12375 7.36125 -1.1875 8.0625 C-1.455625 8.701875 -1.72375 9.34125 -2 10 C-4.9375 11.1875 -4.9375 11.1875 -8 12 C-8.99 12.495 -8.99 12.495 -10 13 C-8.48446596 9.52224821 -6.4226544 7.0442016 -3.875 4.25 C-3.15054687 3.45078125 -2.42609375 2.6515625 -1.6796875 1.828125 C-0.84824219 0.92320312 -0.84824219 0.92320312 0 0 Z " fill="#E5E4E5" transform="translate(393,640)"/>
<path d="M0 0 C0.33 0.66 0.66 1.32 1 2 C-0.68474722 5.36949443 -1.8191658 6.87944386 -5 9 C-5.72965366 11.56282742 -5.72965366 11.56282742 -6 14 C-9.75 15.125 -9.75 15.125 -12 14 C-11.30132813 13.24074219 -10.60265625 12.48148437 -9.8828125 11.69921875 C-8.96343578 10.69540947 -8.04417079 9.69149785 -7.125 8.6875 C-6.66480469 8.18798828 -6.20460938 7.68847656 -5.73046875 7.17382812 C-3.61393392 4.85790957 -1.74473617 2.61710426 0 0 Z " fill="#E4E4E4" transform="translate(677,313)"/>
<path d="M0 0 C0.99 0 1.98 0 3 0 C2.67 1.98 2.34 3.96 2 6 C1.34 5.67 0.68 5.34 0 5 C-0.5775 5.639375 -1.155 6.27875 -1.75 6.9375 C-4.04285821 9.03928669 -5.06312654 9.41385929 -8 10 C-7.04367001 8.70684939 -6.08486149 7.41553147 -5.125 6.125 C-4.59132813 5.40570313 -4.05765625 4.68640625 -3.5078125 3.9453125 C-2 2 -2 2 0 0 Z " fill="#E6E6E6" transform="translate(701,285)"/>
<path d="M0 0 C3.67033927 3.27708863 5.69281189 6.71522208 8 11 C7.01 11 6.02 11 5 11 C2 7.66666667 2 7.66666667 2 5 C0.68 5.33 -0.64 5.66 -2 6 C-1.34 4.02 -0.68 2.04 0 0 Z " fill="#E9E9E9" transform="translate(642,827)"/>
<path d="M0 0 C0.99 0.66 1.98 1.32 3 2 C2 5 2 5 0.1875 6 C-0.534375 6.33 -1.25625 6.66 -2 7 C-3.35113205 7.97581759 -4.68946944 8.97029741 -6 10 C-6 6.41087588 -5.33563446 5.89142971 -3 3.3125 C-2.443125 2.68988281 -1.88625 2.06726563 -1.3125 1.42578125 C-0.879375 0.95527344 -0.44625 0.48476563 0 0 Z " fill="#E6E5E5" transform="translate(439,587)"/>
<path d="M0 0 C0.66 0.66 1.32 1.32 2 2 C1.01 2.66 0.02 3.32 -1 4 C-1 1 -1 1 0 0 Z M-6 5 C-5.01 5.495 -5.01 5.495 -4 6 C-4.99 6.495 -4.99 6.495 -6 7 C-6 6.34 -6 5.68 -6 5 Z M-10 9 C-9.01 9.495 -9.01 9.495 -8 10 C-8.99 10.495 -8.99 10.495 -10 11 C-10 10.34 -10 9.68 -10 9 Z M-13 12 C-12.34 12.33 -11.68 12.66 -11 13 C-12.98 13.99 -12.98 13.99 -15 15 C-14.34 14.01 -13.68 13.02 -13 12 Z " fill="#171716" transform="translate(556,411)"/>
<path d="M0 0 C0.33 0.99 0.66 1.98 1 3 C1.66 3.33 2.32 3.66 3 4 C1.625 5.5 1.625 5.5 0 7 C-2 7 -2 7 -5 6 C-3.35 4.02 -1.7 2.04 0 0 Z " fill="#EAEAEB" transform="translate(379,656)"/>
<path d="M0 0 C0 3.58912412 -0.66436554 4.10857029 -3 6.6875 C-3.556875 7.31011719 -4.11375 7.93273437 -4.6875 8.57421875 C-5.120625 9.04472656 -5.55375 9.51523438 -6 10 C-6.33 9.01 -6.66 8.02 -7 7 C-6.34 7 -5.68 7 -5 7 C-4.731875 6.030625 -4.46375 5.06125 -4.1875 4.0625 C-3.5996875 2.5465625 -3.5996875 2.5465625 -3 1 C-2.01 0.67 -1.02 0.34 0 0 Z " fill="#0E0F0F" transform="translate(777,193)"/>
<path d="M0 0 C0.33 1.65 0.66 3.3 1 5 C0.01 5.66 -0.98 6.32 -2 7 C-4 4 -4 4 -4 1 C-2 0 -2 0 0 0 Z " fill="#F1F2F1" transform="translate(599,618)"/>
<path d="M0 0 C2.125 0.375 2.125 0.375 4 1 C2.25 5.875 2.25 5.875 0 7 C-0.66 5.35 -1.32 3.7 -2 2 C-1.34 1.34 -0.68 0.68 0 0 Z " fill="#EEEDED" transform="translate(446,579)"/>
<path d="M0 0 C-0.39803561 2.88575819 -0.79009069 3.82189513 -3.0625 5.75 C-3.701875 6.1625 -4.34125 6.575 -5 7 C-5.6875 5.1875 -5.6875 5.1875 -6 3 C-4.04862098 0.26806937 -3.44686768 0 0 0 Z " fill="#0E0E0E" transform="translate(744,233)"/>
<path d="M0 0 C3.14027363 0.33645789 4.05098295 1.05236086 6.3125 3.375 C6.869375 4.24125 7.42625 5.1075 8 6 C7.67 6.99 7.34 7.98 7 9 C4.04070881 6.24479785 1.96318174 3.53372712 0 0 Z " fill="#E8E8E7" transform="translate(643,686)"/>
<path d="M0 0 C0.99 0.99 1.98 1.98 3 3 C1.68 4.32 0.36 5.64 -1 7 C-1.66 6.67 -2.32 6.34 -3 6 C-2.42655063 3.13275314 -2.1385485 2.1385485 0 0 Z " fill="#F1F1F0" transform="translate(685,304)"/>
<path d="M0 0 C0.99 0.33 1.98 0.66 3 1 C4.1875 3.5625 4.1875 3.5625 5 6 C4.01 6 3.02 6 2 6 C0.3125 3.5 0.3125 3.5 -1 1 C-0.67 0.67 -0.34 0.34 0 0 Z " fill="#F2F2F1" transform="translate(721,789)"/>
<path d="M0 0 C1.68762851 1.6454378 3.3540349 3.31288577 5 5 C5 5.33 5 5.66 5 6 C3.02 6 1.04 6 -1 6 C-0.67 5.34 -0.34 4.68 0 4 C-0.66 3.34 -1.32 2.68 -2 2 C-1.34 1.34 -0.68 0.68 0 0 Z " fill="#E9E9E8" transform="translate(555,708)"/>
<path d="M0 0 C0.99 0.33 1.98 0.66 3 1 C0.03 3.475 0.03 3.475 -3 6 C-3.66 5.67 -4.32 5.34 -5 5 C-5 4.01 -5 3.02 -5 2 C-4.360625 1.855625 -3.72125 1.71125 -3.0625 1.5625 C-1.02454854 1.18992819 -1.02454854 1.18992819 0 0 Z " fill="#F6F7F6" transform="translate(789,176)"/>
<path d="M0 0 C2 2 2 2 2 5 C1.34 5 0.68 5 0 5 C-0.33 5.66 -0.66 6.32 -1 7 C-1.99 5.35 -2.98 3.7 -4 2 C-2.68 1.34 -1.36 0.68 0 0 Z " fill="#EAE9E9" transform="translate(533,530)"/>
<path d="M0 0 C0.66 0.33 1.32 0.66 2 1 C1.67 1.66 1.34 2.32 1 3 C0.34 3 -0.32 3 -1 3 C-0.67 2.01 -0.34 1.02 0 0 Z M-3 4 C-2.67 4.66 -2.34 5.32 -2 6 C-2.99 7.485 -2.99 7.485 -4 9 C-4.99 8.67 -5.98 8.34 -7 8 C-5.68 6.68 -4.36 5.36 -3 4 Z " fill="#EAEAEA" transform="translate(633,365)"/>
<path d="M0 0 C0.61875 0.350625 1.2375 0.70125 1.875 1.0625 C2.57625 1.371875 3.2775 1.68125 4 2 C4.66 1.67 5.32 1.34 6 1 C6.33 2.32 6.66 3.64 7 5 C4.625 4.75 4.625 4.75 2 4 C0.6875 1.9375 0.6875 1.9375 0 0 Z " fill="#F1F1F1" transform="translate(704,768)"/>
<path d="M0 0 C0.99 0.33 1.98 0.66 3 1 C1.35 2.98 -0.3 4.96 -2 7 C-2.66 6.34 -3.32 5.68 -4 5 C-3.34 4.67 -2.68 4.34 -2 4 C-0.86649466 1.98330173 -0.86649466 1.98330173 0 0 Z " fill="#F8F8F7" transform="translate(501,461)"/>
<path d="M0 0 C1.32 0.66 2.64 1.32 4 2 C2.35 3.32 0.7 4.64 -1 6 C-1.33 5.34 -1.66 4.68 -2 4 C-1.0625 1.875 -1.0625 1.875 0 0 Z " fill="#D9D9D9" transform="translate(553,409)"/>
<path d="M0 0 C0.66 0.99 1.32 1.98 2 3 C-0.97 5.475 -0.97 5.475 -4 8 C-4.66 7.67 -5.32 7.34 -6 7 C-4.02 4.69 -2.04 2.38 0 0 Z " fill="#DADADB" transform="translate(738,241)"/>
<path d="M0 0 C0 0.99 0 1.98 0 3 C-0.99 3.495 -0.99 3.495 -2 4 C-1.34 2.68 -0.68 1.36 0 0 Z M-3 4 C-2.34 4.66 -1.68 5.32 -1 6 C-2.32 6.99 -3.64 7.98 -5 9 C-5.66 8.67 -6.32 8.34 -7 8 C-5.68 6.68 -4.36 5.36 -3 4 Z " fill="#E2E2E1" transform="translate(746,232)"/>
</svg>
